<svg width="20" height="19" viewBox="0 0 20 19" fill="none" xmlns="http://www.w3.org/2000/svg">
<path d="M2.89115 0.0302734C1.49632 0.0302734 0.584351 0.946188 0.584351 2.15003C0.584351 3.32729 1.46915 4.26932 2.83762 4.26932H2.86409C4.28621 4.26932 5.17124 3.32729 5.17124 2.15003C5.14465 0.946188 4.28621 0.0302734 2.89115 0.0302734Z" fill="#1A1A1B"/>
<path d="M0.825327 5.94449H4.903V18.2123H0.825327V5.94449Z" fill="#1A1A1B"/>
<path d="M14.9118 5.65664C12.7121 5.65664 11.237 7.72369 11.237 7.72369V5.94457H7.15923V18.2124H11.2368V11.3616C11.2368 10.9948 11.2634 10.6286 11.3711 10.3664C11.6659 9.634 12.3367 8.87529 13.4632 8.87529C14.9388 8.87529 15.5289 10.0003 15.5289 11.6495V18.2124H19.6062V11.1783C19.6062 7.4101 17.5944 5.65664 14.9118 5.65664Z" fill="#1A1A1B"/>
</svg>
