<svg width="18" height="21" viewBox="0 0 18 21" fill="none" xmlns="http://www.w3.org/2000/svg">
<path d="M17.2478 10.2723C17.0381 9.36133 16.293 8.68938 15.3962 8.58936C13.2729 8.35217 11.1228 8.35105 8.9832 8.35217C6.8427 8.35105 4.69303 8.35217 2.56909 8.58936C1.6727 8.6896 0.928022 9.36156 0.718581 10.2723C0.420084 11.5694 0.416504 12.9854 0.416504 14.321C0.416504 15.6566 0.416504 17.0724 0.715001 18.3695C0.924442 19.2802 1.66912 19.9522 2.56595 20.0524C4.68945 20.2898 6.83912 20.2907 8.97939 20.2898C11.1199 20.2909 13.2691 20.2898 15.3933 20.0524C16.2897 19.9522 17.0348 19.2802 17.2442 18.3695C17.5425 17.0724 17.5441 15.6566 17.5441 14.321C17.5438 12.9851 17.5461 11.5694 17.2478 10.2723ZM5.30188 11.2776H4.06224V17.8647H2.91077V11.2776H1.69373V10.1986H5.30188V11.2776ZM8.42939 17.8649H7.3936V17.2418C6.9821 17.7134 6.59142 17.9435 6.2108 17.9435C5.87717 17.9435 5.64759 17.8083 5.54399 17.519C5.4876 17.3462 5.45269 17.0728 5.45269 16.6696V12.1528H6.48759V16.3583C6.48759 16.6009 6.48759 16.7269 6.49699 16.7609C6.52183 16.9215 6.60037 17.003 6.7391 17.003C6.94675 17.003 7.1638 16.843 7.39338 16.5183V12.1528H8.42916L8.42939 17.8649ZM12.3615 16.1505C12.3615 16.6788 12.326 17.0594 12.2568 17.3015C12.1185 17.7264 11.8417 17.9435 11.43 17.9435C11.0617 17.9435 10.7064 17.7389 10.3602 17.3116V17.8651H9.32533V10.1986H10.3602V12.7023C10.6945 12.2908 11.0494 12.0827 11.43 12.0827C11.8417 12.0827 12.1188 12.2995 12.2568 12.7271C12.3264 12.9569 12.3615 13.3347 12.3615 13.8755V16.1505ZM16.2677 15.1975H14.1977V16.21C14.1977 16.7387 14.3707 17.0028 14.7265 17.0028C14.9813 17.0028 15.1297 16.8643 15.1888 16.5877C15.1984 16.5315 15.212 16.3015 15.212 15.8864H16.268V16.0375C16.268 16.3711 16.2552 16.6009 16.2458 16.7043C16.2111 16.9334 16.1297 17.1413 16.0041 17.3243C15.7175 17.7392 15.2928 17.9437 14.7522 17.9437C14.2107 17.9437 13.7985 17.7488 13.4994 17.3588C13.2799 17.0728 13.1671 16.6226 13.1671 16.0155V14.0149C13.1671 13.4042 13.2671 12.9576 13.4871 12.669C13.786 12.2781 14.1979 12.0834 14.7267 12.0834C15.246 12.0834 15.6578 12.2781 15.9478 12.669C16.1646 12.9576 16.2682 13.4042 16.2682 14.0149L16.2677 15.1975Z" fill="#1A1A1B"/>
<path d="M14.7174 13.0146C14.3714 13.0146 14.198 13.2789 14.198 13.8069V14.3355H15.2329V13.8069C15.2327 13.2789 15.0597 13.0146 14.7174 13.0146Z" fill="#1A1A1B"/>
<path d="M10.8761 13.0146C10.7056 13.0146 10.5328 13.0952 10.3599 13.2663V16.7478C10.5326 16.921 10.7056 17.0029 10.8761 17.0029C11.1746 17.0029 11.3263 16.7478 11.3263 16.2321V13.794C11.3263 13.2789 11.1746 13.0146 10.8761 13.0146Z" fill="#1A1A1B"/>
<path d="M11.4543 7.82553C11.8358 7.82553 12.2328 7.59371 12.6492 7.11665V7.74631H13.6953V1.9735H12.6492V6.38562C12.4174 6.71321 12.1977 6.87521 11.9884 6.87521C11.8484 6.87521 11.766 6.79242 11.7432 6.63019C11.7304 6.59596 11.7304 6.46864 11.7304 6.22362V1.9735H10.6877V6.53823C10.6877 6.94592 10.7226 7.22182 10.7804 7.39658C10.8855 7.68903 11.1176 7.82553 11.4543 7.82553Z" fill="#1A1A1B"/>
<path d="M4.17209 4.60903V7.74639H5.33207V4.60903L6.72744 0H5.55449L4.76304 3.04203L3.9396 0H2.71899C2.96356 0.718049 3.21797 1.43968 3.46254 2.1584C3.83466 3.23872 4.06692 4.05321 4.17209 4.60903Z" fill="#1A1A1B"/>
<path d="M8.28213 7.82564C8.80618 7.82564 9.21342 7.6285 9.5023 7.23468C9.72181 6.94581 9.82697 6.49068 9.82697 5.87712V3.85567C9.82697 3.23853 9.72203 2.78743 9.5023 2.49587C9.21342 2.10093 8.8064 1.9038 8.28213 1.9038C7.76076 1.9038 7.35374 2.10093 7.0642 2.49587C6.842 2.78743 6.73683 3.23853 6.73683 3.85567V5.87712C6.73683 6.49068 6.842 6.94581 7.0642 7.23468C7.35352 7.6285 7.76076 7.82564 8.28213 7.82564ZM7.78292 3.646C7.78292 3.11188 7.94492 2.84561 8.28213 2.84561C8.61934 2.84561 8.78089 3.11166 8.78089 3.646V6.07426C8.78089 6.60838 8.61934 6.87555 8.28213 6.87555C7.94492 6.87555 7.78292 6.60838 7.78292 6.07426V3.646Z" fill="#1A1A1B"/>
</svg>
