<svg width="68" height="68" viewBox="0 0 68 68" fill="none" xmlns="http://www.w3.org/2000/svg">
<path fill-rule="evenodd" clip-rule="evenodd" d="M13.8454 16.9543V37.0758C13.8454 37.1177 13.8454 37.1614 13.8454 37.2006C13.8467 38.025 14.1747 38.8151 14.7575 39.3982C15.3402 39.9812 16.1303 40.3095 16.9546 40.3111C17.0064 40.3111 17.0563 40.3111 17.1069 40.3111H28.888C28.9781 40.3111 29.0645 40.2755 29.1284 40.2118C29.1923 40.1482 29.2283 40.0619 29.2286 39.9717C29.2291 39.9228 29.2187 39.8743 29.1985 39.8297C29.1782 39.785 29.1485 39.7454 29.1112 39.7135C28.2836 39.0089 27.6186 38.1331 27.1626 37.1463C26.7066 36.1594 26.4702 35.0855 26.47 33.9984V16.9543C26.473 15.8079 26.9299 14.7094 27.7407 13.899C28.5517 13.0887 29.6505 12.6326 30.7969 12.6304H51.0448C54.4421 12.636 57.7701 13.5921 60.6526 15.3906C63.5349 17.1891 65.8565 19.7581 67.3549 22.8072C67.3889 22.8762 67.4452 22.9317 67.5148 22.9645C67.5843 22.9975 67.663 23.0057 67.7378 22.9881C67.8127 22.9705 67.8794 22.9281 67.927 22.8677C67.9746 22.8073 68.0003 22.7325 68 22.6557V18.1708C67.9905 13.3547 66.0732 8.73847 62.6678 5.33293C59.2623 1.9274 54.6463 0.010026 49.8301 0.000628264H30.7969C26.3033 0.00903995 21.9961 1.79807 18.8189 4.97587C15.6415 8.15367 13.8532 12.4606 13.8454 16.9543ZM54.1546 51.047V30.9254C54.1546 30.8843 54.1546 30.8405 54.1546 30.8006C54.1525 29.9762 53.8244 29.1862 53.2416 28.6032C52.6589 28.02 51.8691 27.6914 51.0448 27.6889C50.9936 27.6889 50.9437 27.6889 50.8913 27.6926V27.6869H39.1089C39.0395 27.6875 38.972 27.7091 38.9154 27.749C38.8586 27.7889 38.8154 27.8453 38.7916 27.9103C38.7677 27.9755 38.7643 28.0463 38.7817 28.1134C38.7992 28.1805 38.8367 28.2407 38.8894 28.2859C39.7172 28.9905 40.3821 29.8665 40.838 30.8534C41.2937 31.8403 41.5297 32.9145 41.5294 34.0016V51.0463C41.5273 52.1928 41.071 53.2917 40.2603 54.1026C39.4496 54.9133 38.3508 55.3697 37.2043 55.3721H16.9546C13.5573 55.3668 10.2293 54.4109 7.34702 52.6125C4.46473 50.8142 2.1432 48.2451 0.645045 45.1959C0.611162 45.127 0.554982 45.0716 0.48564 45.0388C0.416297 45.0059 0.337877 44.9975 0.263123 45.0148C0.18837 45.0321 0.121677 45.0742 0.0739054 45.1344C0.0261337 45.1944 8.89567e-05 45.2689 0 45.3456V49.8323C0.00923527 54.6483 1.9266 59.2644 5.33218 62.6695C8.73776 66.0747 13.354 67.9914 18.1699 68H37.2031C41.6967 67.9916 46.0038 66.2026 49.181 63.0249C52.3582 59.8472 54.1466 55.5406 54.1546 51.047ZM16.9546 54.1574H37.0746C37.1163 54.1574 37.1595 54.1574 37.2031 54.1574C38.0274 54.1551 38.8171 53.8264 39.3998 53.2434C39.9825 52.6605 40.3108 51.8705 40.3129 51.0463C40.3129 50.9945 40.3129 50.9459 40.3129 50.8934V39.1121C40.3132 39.0428 40.2922 38.9751 40.2527 38.918C40.2134 38.861 40.1574 38.8175 40.0925 38.7933C40.0276 38.769 39.9567 38.7653 39.8895 38.7826C39.8224 38.7999 39.7623 38.8375 39.7172 38.8901C39.0117 39.7176 38.1351 40.3824 37.1478 40.8381C36.1605 41.294 35.0859 41.5301 33.9984 41.5301H16.9546C15.8081 41.5279 14.7092 41.0713 13.8987 40.2603C13.0881 39.4495 12.632 38.3504 12.6302 37.2038V16.9543C12.6358 13.5572 13.5918 10.2295 15.3902 7.34755C17.1885 4.46556 19.7574 2.14431 22.8062 0.646313C22.8752 0.612396 22.9306 0.556134 22.9636 0.486676C22.9966 0.41722 23.0051 0.338656 22.9878 0.263757C22.9704 0.188857 22.9283 0.122031 22.8681 0.0741447C22.8079 0.0262589 22.7333 0.000121621 22.6564 0H18.1699C13.3537 0.00939824 8.73747 1.92685 5.33198 5.33253C1.92648 8.73819 0.00923271 13.3546 0 18.1708V37.2038C0.00808179 41.6979 1.797 46.0057 4.9749 49.1834C8.15279 52.361 12.4606 54.1497 16.9546 54.1574ZM51.0448 13.8457H30.9242C30.8829 13.8457 30.8387 13.8457 30.7994 13.8457C29.975 13.8465 29.1847 14.1742 28.6015 14.757C28.0185 15.3398 27.6903 16.1299 27.689 16.9543C27.689 17.0067 27.689 17.0578 27.689 17.1078V28.891C27.6895 28.981 27.7255 29.0673 27.7894 29.1309C27.8531 29.1945 27.9396 29.2302 28.0296 29.2304C28.0782 29.2304 28.1264 29.2197 28.1705 29.1993C28.2147 29.1788 28.2539 29.1489 28.2853 29.1118C28.9905 28.2847 29.8666 27.6204 30.8534 27.1648C31.8401 26.7092 32.9141 26.4731 34.0009 26.473H51.0473C52.1938 26.4749 53.2928 26.9314 54.1033 27.7422C54.914 28.5531 55.37 29.6521 55.3717 30.7987V51.0463C55.3669 54.4436 54.4112 57.7716 52.6128 60.6538C50.8143 63.5358 48.2451 65.857 45.1956 67.3543C45.1272 67.3884 45.0722 67.4446 45.0397 67.5139C45.0071 67.5833 44.999 67.6615 45.0166 67.736C45.0342 67.8105 45.0763 67.8769 45.1363 67.9243C45.1963 67.9718 45.2707 67.9976 45.3473 67.9975H49.8326C54.6472 67.9873 59.2616 66.0701 62.6661 62.6658C66.0706 59.2614 67.9877 54.6469 67.9981 49.8323V30.7987C67.9901 26.3046 66.201 21.9968 63.023 18.8191C59.8449 15.6415 55.5389 13.8531 51.0448 13.8457Z" fill="white"/>
</svg>
